<svg width="15" height="15" viewBox="0 0 15 15" fill="none" xmlns="http://www.w3.org/2000/svg">
<g clip-path="url(#clip0_411_157)">
<path d="M14.375 7.49999L12.85 9.23749L13.0625 11.5375L10.8062 12.05L9.625 14.0375L7.5 13.125L5.375 14.0437L4.19375 12.0562L1.9375 11.5437L2.15 9.23749L0.625 7.49999L2.15 5.75624L1.9375 3.45624L4.19375 2.94999L5.375 0.962494L7.5 1.87499L9.625 0.962494L10.8062 2.94999L13.0625 3.46249L12.85 5.76249L14.375 7.49999ZM12.7062 7.49999L11.5625 6.18124L11.7125 4.43749L10 4.06249L9.1125 2.54374L7.5 3.23749L5.8875 2.54374L5 4.06249L3.2875 4.43124L3.4375 6.17499L2.29375 7.49999L3.4375 8.81249L3.2875 10.5625L5 10.9375L5.8875 12.4562L7.5 11.7562L9.1125 12.45L10 10.9375L11.7125 10.5562L11.5625 8.81249L12.7062 7.49999ZM6.875 9.37499H8.125V10.625H6.875V9.37499ZM6.875 4.37499H8.125V8.12499H6.875V4.37499Z" fill="#1D405B"/>
</g>
<defs>
<clipPath id="clip0_411_157">
<rect width="15" height="15" fill="white"/>
</clipPath>
</defs>
</svg>
