<svg width="17" height="17" viewBox="0 0 17 17" fill="none" xmlns="http://www.w3.org/2000/svg">
<path d="M13.9189 6.40333L10.4906 6.10583L9.15181 2.95375C8.91098 2.38 8.08931 2.38 7.84848 2.95375L6.50973 6.11292L3.08848 6.40333C2.46514 6.45292 2.21014 7.23208 2.68473 7.64292L5.28431 9.89542L4.50514 13.2388C4.36348 13.8479 5.02223 14.3296 5.56056 14.0038L8.50014 12.2329L11.4397 14.0108C11.9781 14.3367 12.6368 13.855 12.4951 13.2458L11.716 9.89542L14.3156 7.64292C14.7901 7.23208 14.5422 6.45292 13.9189 6.40333ZM8.50014 10.9083L5.83681 12.5163L6.54514 9.48458L4.19348 7.44458L7.29598 7.17542L8.50014 4.32083L9.71139 7.1825L12.8139 7.45167L10.4622 9.49167L11.1706 12.5233L8.50014 10.9083Z" fill="#1D405B"/>
</svg>
