<svg width="17" height="17" viewBox="0 0 17 17" fill="none" xmlns="http://www.w3.org/2000/svg">
<path d="M9.9165 9.20832V7.79166L8.49984 8.49999L7.08317 7.79166V9.20832L5.6665 9.91666L7.08317 10.625V12.0417L8.49984 11.3333L9.9165 12.0417V10.625L11.3332 9.91666M9.9165 1.41666H4.95817C4.58245 1.41666 4.22211 1.56591 3.95644 1.83159C3.69076 2.09727 3.5415 2.4576 3.5415 2.83332V12.75C3.5415 13.1257 3.69076 13.486 3.95644 13.7517C4.22211 14.0174 4.58245 14.1667 4.95817 14.1667H5.6665V12.75H4.95817V2.83332H9.20817V5.66666H12.0415V12.75H11.3332V14.1667H12.0415C12.4172 14.1667 12.7776 14.0174 13.0432 13.7517C13.3089 13.486 13.4582 13.1257 13.4582 12.75V4.95832M9.9165 9.20832V7.79166L8.49984 8.49999L7.08317 7.79166V9.20832L5.6665 9.91666L7.08317 10.625V12.0417L8.49984 11.3333L9.9165 12.0417V10.625L11.3332 9.91666M7.08317 16.2917L8.49984 15.5833L9.9165 16.2917V12.75H7.08317M9.9165 9.20832V7.79166L8.49984 8.49999L7.08317 7.79166V9.20832L5.6665 9.91666L7.08317 10.625V12.0417L8.49984 11.3333L9.9165 12.0417V10.625L11.3332 9.91666L9.9165 9.20832Z" fill="#1D405B"/>
</svg>
