<svg width="14" height="14" viewBox="0 0 14 14" fill="none" xmlns="http://www.w3.org/2000/svg">
<path d="M9.9165 4.08333H4.08317C3.92846 4.08333 3.78009 4.14479 3.67069 4.25419C3.5613 4.36358 3.49984 4.51195 3.49984 4.66666C3.49984 4.82137 3.5613 4.96975 3.67069 5.07914C3.78009 5.18854 3.92846 5.25 4.08317 5.25H9.9165C10.0712 5.25 10.2196 5.18854 10.329 5.07914C10.4384 4.96975 10.4998 4.82137 10.4998 4.66666C10.4998 4.51195 10.4384 4.36358 10.329 4.25419C10.2196 4.14479 10.0712 4.08333 9.9165 4.08333ZM9.9165 6.41666H4.08317C3.92846 6.41666 3.78009 6.47812 3.67069 6.58752C3.5613 6.69691 3.49984 6.84529 3.49984 7C3.49984 7.15471 3.5613 7.30308 3.67069 7.41248C3.78009 7.52187 3.92846 7.58333 4.08317 7.58333H9.9165C10.0712 7.58333 10.2196 7.52187 10.329 7.41248C10.4384 7.30308 10.4998 7.15471 10.4998 7C10.4998 6.84529 10.4384 6.69691 10.329 6.58752C10.2196 6.47812 10.0712 6.41666 9.9165 6.41666ZM11.0832 1.16666H2.9165C2.45238 1.16666 2.00726 1.35104 1.67907 1.67923C1.35088 2.00742 1.1665 2.45254 1.1665 2.91666V8.75C1.1665 9.21413 1.35088 9.65925 1.67907 9.98743C2.00726 10.3156 2.45238 10.5 2.9165 10.5H9.67734L11.8357 12.6642C11.8902 12.7182 11.9548 12.761 12.0259 12.79C12.097 12.8191 12.1731 12.8338 12.2498 12.8333C12.3264 12.8353 12.4023 12.8193 12.4715 12.7867C12.578 12.7429 12.6692 12.6686 12.7336 12.5731C12.7979 12.4776 12.8326 12.3652 12.8332 12.25V2.91666C12.8332 2.45254 12.6488 2.00742 12.3206 1.67923C11.9924 1.35104 11.5473 1.16666 11.0832 1.16666ZM11.6665 10.8442L10.3307 9.5025C10.2762 9.44843 10.2115 9.40566 10.1405 9.37663C10.0694 9.3476 9.99327 9.33289 9.9165 9.33333H2.9165C2.76179 9.33333 2.61342 9.27187 2.50403 9.16248C2.39463 9.05308 2.33317 8.90471 2.33317 8.75V2.91666C2.33317 2.76195 2.39463 2.61358 2.50403 2.50419C2.61342 2.39479 2.76179 2.33333 2.9165 2.33333H11.0832C11.2379 2.33333 11.3863 2.39479 11.4957 2.50419C11.605 2.61358 11.6665 2.76195 11.6665 2.91666V10.8442Z" fill="#1D405B"/>
</svg>
