<svg width="105" height="105" viewBox="0 0 105 105" fill="none" xmlns="http://www.w3.org/2000/svg">
<g clip-path="url(#clip0_476_355)">
<path d="M52.5 8.75C76.6631 8.75 96.25 28.3369 96.25 52.5C96.25 76.6631 76.6631 96.25 52.5 96.25C28.3369 96.25 8.75 76.6631 8.75 52.5C8.75 28.3369 28.3369 8.75 52.5 8.75ZM52.5 17.5C43.2174 17.5 34.315 21.1875 27.7513 27.7513C21.1875 34.315 17.5 43.2174 17.5 52.5C17.5 61.7826 21.1875 70.685 27.7513 77.2487C34.315 83.8125 43.2174 87.5 52.5 87.5C61.7826 87.5 70.685 83.8125 77.2487 77.2487C83.8125 70.685 87.5 61.7826 87.5 52.5C87.5 43.2174 83.8125 34.315 77.2487 27.7513C70.685 21.1875 61.7826 17.5 52.5 17.5ZM43.2206 37.03L52.5 46.3138L61.7794 37.03C62.1859 36.6235 62.6684 36.3011 63.1995 36.0811C63.7306 35.8611 64.2998 35.7479 64.8747 35.7479C65.4495 35.7479 66.0188 35.8611 66.5499 36.0811C67.081 36.3011 67.5635 36.6235 67.97 37.03C68.3765 37.4365 68.6989 37.919 68.9189 38.4501C69.1389 38.9812 69.2521 39.5505 69.2521 40.1253C69.2521 40.7002 69.1389 41.2694 68.9189 41.8005C68.6989 42.3316 68.3765 42.8141 67.97 43.2206L58.6862 52.4956L67.97 61.7794C68.7909 62.6003 69.2521 63.7137 69.2521 64.8747C69.2521 66.0357 68.7909 67.1491 67.97 67.97C67.1491 68.7909 66.0357 69.2521 64.8747 69.2521C63.7137 69.2521 62.6003 68.7909 61.7794 67.97L52.5 58.6862L43.2206 67.97C42.3997 68.7909 41.2863 69.2521 40.1253 69.2521C38.9643 69.2521 37.8509 68.7909 37.03 67.97C36.2091 67.1491 35.7479 66.0357 35.7479 64.8747C35.7479 63.7137 36.2091 62.6003 37.03 61.7794L46.3138 52.5L37.0344 43.2206C36.2134 42.4003 35.752 41.2874 35.7516 40.1269C35.7512 38.9663 36.2118 37.8531 37.0322 37.0322C37.8525 36.2113 38.9654 35.7498 40.126 35.7494C41.2865 35.749 42.3997 36.2097 43.2206 37.03Z" fill="#F26464"/>
</g>
<defs>
<clipPath id="clip0_476_355">
<rect width="105" height="105" fill="white"/>
</clipPath>
</defs>
</svg>
