<svg width="15" height="15" viewBox="0 0 15 15" fill="none" xmlns="http://www.w3.org/2000/svg">
<path d="M7.5 13.75C6.64583 13.75 5.83854 13.5858 5.07812 13.2575C4.31771 12.9296 3.65375 12.4817 3.08625 11.9137C2.51833 11.3463 2.07042 10.6823 1.7425 9.92188C1.41417 9.16146 1.25 8.35417 1.25 7.5C1.25 6.63542 1.41417 5.82562 1.7425 5.07062C2.07042 4.31521 2.51833 3.65375 3.08625 3.08625C3.65375 2.51833 4.31771 2.07021 5.07812 1.74187C5.83854 1.41396 6.64583 1.25 7.5 1.25C8.36458 1.25 9.17438 1.41396 9.92937 1.74187C10.6848 2.07021 11.3463 2.51833 11.9137 3.08625C12.4817 3.65375 12.9296 4.31521 13.2575 5.07062C13.5858 5.82562 13.75 6.63542 13.75 7.5C13.75 8.35417 13.5858 9.16146 13.2575 9.92188C12.9296 10.6823 12.4817 11.3463 11.9137 11.9137C11.3463 12.4817 10.6848 12.9296 9.92937 13.2575C9.17438 13.5858 8.36458 13.75 7.5 13.75ZM7.5 12.4688C7.77083 12.0938 8.00521 11.7031 8.20312 11.2969C8.40104 10.8906 8.5625 10.4583 8.6875 10H6.3125C6.4375 10.4583 6.59896 10.8906 6.79688 11.2969C6.99479 11.7031 7.22917 12.0938 7.5 12.4688ZM5.875 12.2188C5.6875 11.875 5.52354 11.5181 5.38312 11.1481C5.24229 10.7785 5.125 10.3958 5.03125 10H3.1875C3.48958 10.5208 3.86708 10.974 4.32 11.3594C4.77333 11.7448 5.29167 12.0312 5.875 12.2188ZM9.125 12.2188C9.70833 12.0312 10.2265 11.7448 10.6794 11.3594C11.1327 10.974 11.5104 10.5208 11.8125 10H9.96875C9.875 10.3958 9.75792 10.7785 9.6175 11.1481C9.47667 11.5181 9.3125 11.875 9.125 12.2188ZM2.65625 8.75H4.78125C4.75 8.54167 4.72646 8.33583 4.71063 8.1325C4.69521 7.92958 4.6875 7.71875 4.6875 7.5C4.6875 7.28125 4.69521 7.07042 4.71063 6.8675C4.72646 6.66417 4.75 6.45833 4.78125 6.25H2.65625C2.60417 6.45833 2.565 6.66417 2.53875 6.8675C2.51292 7.07042 2.5 7.28125 2.5 7.5C2.5 7.71875 2.51292 7.92958 2.53875 8.1325C2.565 8.33583 2.60417 8.54167 2.65625 8.75ZM6.03125 8.75H8.96875C9 8.54167 9.02354 8.33583 9.03938 8.1325C9.05479 7.92958 9.0625 7.71875 9.0625 7.5C9.0625 7.28125 9.05479 7.07042 9.03938 6.8675C9.02354 6.66417 9 6.45833 8.96875 6.25H6.03125C6 6.45833 5.97667 6.66417 5.96125 6.8675C5.94542 7.07042 5.9375 7.28125 5.9375 7.5C5.9375 7.71875 5.94542 7.92958 5.96125 8.1325C5.97667 8.33583 6 8.54167 6.03125 8.75ZM10.2188 8.75H12.3438C12.3958 8.54167 12.435 8.33583 12.4613 8.1325C12.4871 7.92958 12.5 7.71875 12.5 7.5C12.5 7.28125 12.4871 7.07042 12.4613 6.8675C12.435 6.66417 12.3958 6.45833 12.3438 6.25H10.2188C10.25 6.45833 10.2733 6.66417 10.2887 6.8675C10.3046 7.07042 10.3125 7.28125 10.3125 7.5C10.3125 7.71875 10.3046 7.92958 10.2887 8.1325C10.2733 8.33583 10.25 8.54167 10.2188 8.75ZM9.96875 5H11.8125C11.5104 4.47917 11.1327 4.02604 10.6794 3.64062C10.2265 3.25521 9.70833 2.96875 9.125 2.78125C9.3125 3.125 9.47667 3.48167 9.6175 3.85125C9.75792 4.22125 9.875 4.60417 9.96875 5ZM6.3125 5H8.6875C8.5625 4.54167 8.40104 4.10938 8.20312 3.70312C8.00521 3.29688 7.77083 2.90625 7.5 2.53125C7.22917 2.90625 6.99479 3.29688 6.79688 3.70312C6.59896 4.10938 6.4375 4.54167 6.3125 5ZM3.1875 5H5.03125C5.125 4.60417 5.24229 4.22125 5.38312 3.85125C5.52354 3.48167 5.6875 3.125 5.875 2.78125C5.29167 2.96875 4.77333 3.25521 4.32 3.64062C3.86708 4.02604 3.48958 4.47917 3.1875 5Z" fill="#1D405B"/>
</svg>
