<svg width="20" height="20" viewBox="0 0 20 20" fill="none" xmlns="http://www.w3.org/2000/svg">
<path d="M9.99984 16.6667C6.32484 16.6667 3.33317 13.675 3.33317 10C3.33317 6.325 6.32484 3.33333 9.99984 3.33333C13.6748 3.33333 16.6665 6.325 16.6665 10C16.6665 13.675 13.6748 16.6667 9.99984 16.6667ZM9.99984 1.66667C8.90549 1.66667 7.82185 1.88221 6.81081 2.301C5.79976 2.71979 4.8811 3.33362 4.10728 4.10744C2.54448 5.67025 1.6665 7.78986 1.6665 10C1.6665 12.2101 2.54448 14.3298 4.10728 15.8926C4.8811 16.6664 5.79976 17.2802 6.81081 17.699C7.82185 18.1178 8.90549 18.3333 9.99984 18.3333C12.21 18.3333 14.3296 17.4554 15.8924 15.8926C17.4552 14.3298 18.3332 12.2101 18.3332 10C18.3332 8.90565 18.1176 7.82202 17.6988 6.81097C17.28 5.79992 16.6662 4.88126 15.8924 4.10744C15.1186 3.33362 14.1999 2.71979 13.1889 2.301C12.1778 1.88221 11.0942 1.66667 9.99984 1.66667ZM5.83317 10.8333H14.1665V9.16667H5.83317" fill="#1D405B"/>
</svg>
