<svg width="17" height="17" viewBox="0 0 17 17" fill="none" xmlns="http://www.w3.org/2000/svg">
<path d="M4.25016 16.2917C3.86058 16.2917 3.52719 16.1531 3.25 15.8759C2.97233 15.5982 2.8335 15.2646 2.8335 14.875V7.08333C2.8335 6.69374 2.97233 6.36012 3.25 6.08245C3.52719 5.80526 3.86058 5.66666 4.25016 5.66666H6.37516V7.08333H4.25016V14.875H12.7502V7.08333H10.6252V5.66666H12.7502C13.1397 5.66666 13.4734 5.80526 13.751 6.08245C14.0282 6.36012 14.1668 6.69374 14.1668 7.08333V14.875C14.1668 15.2646 14.0282 15.5982 13.751 15.8759C13.4734 16.1531 13.1397 16.2917 12.7502 16.2917H4.25016ZM7.79183 11.3333V3.4177L6.6585 4.55104L5.66683 3.54166L8.50016 0.708328L11.3335 3.54166L10.3418 4.55104L9.2085 3.4177V11.3333H7.79183Z" fill="#1D405B"/>
</svg>
