<svg width="91" height="91" viewBox="0 0 91 91" fill="none" xmlns="http://www.w3.org/2000/svg">
<path d="M40.1918 52.325L31.945 44.0781C31.2498 43.383 30.3815 43.0518 29.3401 43.0847C28.2961 43.115 27.4266 43.4778 26.7314 44.1729C26.0363 44.868 25.6887 45.7528 25.6887 46.8271C25.6887 47.9014 26.0363 48.7861 26.7314 49.4812L37.5377 60.2875C38.2328 60.9826 39.1175 61.3302 40.1918 61.3302C41.2661 61.3302 42.1509 60.9826 42.846 60.2875L64.3637 38.7698C65.0588 38.0746 65.3912 37.2051 65.3609 36.1611C65.3281 35.1197 64.9641 34.2514 64.2689 33.5562C63.5738 32.8611 62.689 32.5135 61.6147 32.5135C60.5404 32.5135 59.6557 32.8611 58.9606 33.5562L40.1918 52.325ZM45.5002 83.4166C40.255 83.4166 35.3259 82.4207 30.7127 80.4288C26.0995 78.4394 22.0866 75.7385 18.6741 72.326C15.2616 68.9135 12.5607 64.9007 10.5713 60.2875C8.57944 55.6743 7.5835 50.7451 7.5835 45.5C7.5835 40.2548 8.57944 35.3257 10.5713 30.7125C12.5607 26.0993 15.2616 22.0864 18.6741 18.6739C22.0866 15.2614 26.0995 12.5592 30.7127 10.5674C35.3259 8.57799 40.255 7.58331 45.5002 7.58331C50.7453 7.58331 55.6745 8.57799 60.2877 10.5674C64.9009 12.5592 68.9137 15.2614 72.3262 18.6739C75.7387 22.0864 78.4396 26.0993 80.429 30.7125C82.4209 35.3257 83.4168 40.2548 83.4168 45.5C83.4168 50.7451 82.4209 55.6743 80.429 60.2875C78.4396 64.9007 75.7387 68.9135 72.3262 72.326C68.9137 75.7385 64.9009 78.4394 60.2877 80.4288C55.6745 82.4207 50.7453 83.4166 45.5002 83.4166ZM45.5002 75.8333C53.905 75.8333 61.0624 72.8796 66.9724 66.9722C72.8798 61.0622 75.8335 53.9048 75.8335 45.5C75.8335 37.0951 72.8798 29.9377 66.9724 24.0278C61.0624 18.1204 53.905 15.1666 45.5002 15.1666C37.0953 15.1666 29.9392 18.1204 24.0317 24.0278C18.1218 29.9377 15.1668 37.0951 15.1668 45.5C15.1668 53.9048 18.1218 61.0622 24.0317 66.9722C29.9392 72.8796 37.0953 75.8333 45.5002 75.8333Z" fill="#62E763"/>
</svg>
